<?xml version="1.0" encoding="UTF-8"?>
<mxfile host="app.diagrams.net" modified="2021-05-14T06:58:27.786Z" agent="5.0 (Windows NT 10.0; Win64; x64) AppleWebKit/537.36 (KHTML, like Gecko) Chrome/86.0.4240.272 Whale/2.9.117.22 Safari/537.36" etag="vLuR4XUh-5ckSWQpKLVY" version="14.6.13" type="google">
  <diagram id="kgpKYQtTHZ0yAKxKKP6v" name="Page-1">
    <mxGraphModel dx="1550" dy="783" grid="1" gridSize="10" guides="1" tooltips="1" connect="1" arrows="1" fold="1" page="1" pageScale="1" pageWidth="850" pageHeight="1100" math="0" shadow="0">
      <root>
        <mxCell id="0" />
        <mxCell id="1" parent="0" />
        <mxCell id="PDJ9DvChYjIFynAEPUYo-1" value="alt" style="shape=umlFrame;whiteSpace=wrap;html=1;" vertex="1" parent="1">
          <mxGeometry x="220" y="195" width="810" height="255" as="geometry" />
        </mxCell>
        <mxCell id="5XN0uDn3HRlpicW2Zke3-1" value="" style="shape=callout;whiteSpace=wrap;html=1;perimeter=calloutPerimeter;rotation=-180;" parent="1" vertex="1">
          <mxGeometry x="140" y="530" width="830" height="390" as="geometry" />
        </mxCell>
        <mxCell id="5XN0uDn3HRlpicW2Zke3-19" value="" style="ellipse;whiteSpace=wrap;html=1;aspect=fixed;" parent="1" vertex="1">
          <mxGeometry x="140" y="540" width="40" height="40" as="geometry" />
        </mxCell>
        <mxCell id="3nuBFxr9cyL0pnOWT2aG-1" value="View Controller" style="shape=umlLifeline;perimeter=lifelinePerimeter;container=1;collapsible=0;recursiveResize=0;rounded=0;shadow=0;strokeWidth=1;" parent="1" vertex="1">
          <mxGeometry x="120" y="80" width="100" height="310" as="geometry" />
        </mxCell>
        <mxCell id="3nuBFxr9cyL0pnOWT2aG-3" value="Click Tab" style="verticalAlign=bottom;startArrow=oval;endArrow=block;startSize=8;shadow=0;strokeWidth=1;entryX=0.2;entryY=-0.024;entryDx=0;entryDy=0;entryPerimeter=0;" parent="3nuBFxr9cyL0pnOWT2aG-1" edge="1">
          <mxGeometry relative="1" as="geometry">
            <mxPoint x="-310" y="70" as="sourcePoint" />
            <mxPoint x="-153" y="69.03999999999985" as="targetPoint" />
          </mxGeometry>
        </mxCell>
        <mxCell id="VVv02Xvq2UXiGt_qcRO8-12" value="" style="points=[];perimeter=orthogonalPerimeter;rounded=0;shadow=0;strokeWidth=1;" parent="3nuBFxr9cyL0pnOWT2aG-1" vertex="1">
          <mxGeometry x="45" y="170" width="10" height="70" as="geometry" />
        </mxCell>
        <mxCell id="5XN0uDn3HRlpicW2Zke3-20" value="&lt;b&gt;V1&lt;/b&gt;" style="text;html=1;strokeColor=none;fillColor=none;align=center;verticalAlign=middle;whiteSpace=wrap;rounded=0;" parent="3nuBFxr9cyL0pnOWT2aG-1" vertex="1">
          <mxGeometry x="20" y="470" width="40" height="20" as="geometry" />
        </mxCell>
        <mxCell id="3nuBFxr9cyL0pnOWT2aG-5" value=":Controller" style="shape=umlLifeline;perimeter=lifelinePerimeter;container=1;collapsible=0;recursiveResize=0;rounded=0;shadow=0;strokeWidth=1;" parent="1" vertex="1">
          <mxGeometry x="300" y="80" width="100" height="370" as="geometry" />
        </mxCell>
        <mxCell id="3nuBFxr9cyL0pnOWT2aG-6" value="" style="points=[];perimeter=orthogonalPerimeter;rounded=0;shadow=0;strokeWidth=1;" parent="3nuBFxr9cyL0pnOWT2aG-5" vertex="1">
          <mxGeometry x="45" y="80" width="10" height="120" as="geometry" />
        </mxCell>
        <mxCell id="3nuBFxr9cyL0pnOWT2aG-7" value="return IssueInfo" style="verticalAlign=bottom;endArrow=open;dashed=1;endSize=8;shadow=0;strokeWidth=1;exitX=0;exitY=0.896;exitDx=0;exitDy=0;exitPerimeter=0;" parent="1" edge="1">
          <mxGeometry relative="1" as="geometry">
            <mxPoint x="175" y="273" as="targetPoint" />
            <mxPoint x="345" y="272.5999999999999" as="sourcePoint" />
          </mxGeometry>
        </mxCell>
        <mxCell id="3nuBFxr9cyL0pnOWT2aG-8" value="Info:get(queryRequest: string)" style="verticalAlign=bottom;endArrow=block;entryX=0;entryY=0;shadow=0;strokeWidth=1;" parent="1" target="3nuBFxr9cyL0pnOWT2aG-6" edge="1">
          <mxGeometry relative="1" as="geometry">
            <mxPoint x="-25" y="159.9999999999999" as="sourcePoint" />
          </mxGeometry>
        </mxCell>
        <mxCell id="VVv02Xvq2UXiGt_qcRO8-1" value="Guest" style="shape=umlActor;verticalLabelPosition=bottom;verticalAlign=top;html=1;outlineConnect=0;" parent="1" vertex="1">
          <mxGeometry x="-210" y="60" width="30" height="60" as="geometry" />
        </mxCell>
        <mxCell id="VVv02Xvq2UXiGt_qcRO8-2" value=":Database&#xa;Connection" style="shape=umlLifeline;perimeter=lifelinePerimeter;container=1;collapsible=0;recursiveResize=0;rounded=0;shadow=0;strokeWidth=1;" parent="1" vertex="1">
          <mxGeometry x="740" y="80" width="100" height="370" as="geometry" />
        </mxCell>
        <mxCell id="VVv02Xvq2UXiGt_qcRO8-3" value="" style="points=[];perimeter=orthogonalPerimeter;rounded=0;shadow=0;strokeWidth=1;" parent="VVv02Xvq2UXiGt_qcRO8-2" vertex="1">
          <mxGeometry x="45" y="127" width="10" height="60" as="geometry" />
        </mxCell>
        <mxCell id="VVv02Xvq2UXiGt_qcRO8-4" value="Database" style="shape=umlActor;verticalLabelPosition=bottom;verticalAlign=top;html=1;outlineConnect=0;" parent="1" vertex="1">
          <mxGeometry x="930" y="100" width="30" height="60" as="geometry" />
        </mxCell>
        <mxCell id="VVv02Xvq2UXiGt_qcRO8-5" value="IssueInfo:=find(params:Long)" style="verticalAlign=bottom;endArrow=block;entryX=-0.1;entryY=0.2;shadow=0;strokeWidth=1;entryDx=0;entryDy=0;entryPerimeter=0;" parent="1" edge="1">
          <mxGeometry relative="1" as="geometry">
            <mxPoint x="356" y="211" as="sourcePoint" />
            <mxPoint x="636" y="211.25" as="targetPoint" />
          </mxGeometry>
        </mxCell>
        <mxCell id="VVv02Xvq2UXiGt_qcRO8-7" value="" style="endArrow=none;dashed=1;html=1;startArrow=none;" parent="1" source="tsok4l0tC30ghfvMvASe-4" edge="1">
          <mxGeometry width="50" height="50" relative="1" as="geometry">
            <mxPoint x="944.58" y="380" as="sourcePoint" />
            <mxPoint x="944.58" y="180" as="targetPoint" />
          </mxGeometry>
        </mxCell>
        <mxCell id="VVv02Xvq2UXiGt_qcRO8-8" value="" style="endArrow=none;dashed=1;html=1;" parent="1" edge="1">
          <mxGeometry width="50" height="50" relative="1" as="geometry">
            <mxPoint x="-190" y="390" as="sourcePoint" />
            <mxPoint x="-190" y="150" as="targetPoint" />
          </mxGeometry>
        </mxCell>
        <mxCell id="VVv02Xvq2UXiGt_qcRO8-9" value="retrieve Issue Info" style="verticalAlign=bottom;endArrow=block;shadow=0;strokeWidth=1;exitX=0.9;exitY=0.333;exitDx=0;exitDy=0;exitPerimeter=0;" parent="1" edge="1">
          <mxGeometry relative="1" as="geometry">
            <mxPoint x="794" y="228.98000000000002" as="sourcePoint" />
            <mxPoint x="940" y="229" as="targetPoint" />
          </mxGeometry>
        </mxCell>
        <mxCell id="VVv02Xvq2UXiGt_qcRO8-10" value="return records" style="verticalAlign=bottom;endArrow=open;dashed=1;endSize=8;shadow=0;strokeWidth=1;entryX=0.917;entryY=0.8;entryDx=0;entryDy=0;entryPerimeter=0;exitX=0.5;exitY=0.747;exitDx=0;exitDy=0;exitPerimeter=0;" parent="1" source="tsok4l0tC30ghfvMvASe-4" edge="1">
          <mxGeometry relative="1" as="geometry">
            <mxPoint x="794.1700000000001" y="250" as="targetPoint" />
            <mxPoint x="945" y="252" as="sourcePoint" />
          </mxGeometry>
        </mxCell>
        <mxCell id="VVv02Xvq2UXiGt_qcRO8-18" value="result displayed" style="verticalAlign=bottom;endArrow=open;dashed=1;endSize=8;shadow=0;strokeWidth=1;" parent="1" edge="1">
          <mxGeometry relative="1" as="geometry">
            <mxPoint x="-190" y="336" as="targetPoint" />
            <mxPoint x="-35" y="336" as="sourcePoint" />
          </mxGeometry>
        </mxCell>
        <mxCell id="5XN0uDn3HRlpicW2Zke3-9" value="Database" style="shape=umlActor;verticalLabelPosition=bottom;verticalAlign=top;html=1;outlineConnect=0;" parent="1" vertex="1">
          <mxGeometry x="920" y="560" width="30" height="60" as="geometry" />
        </mxCell>
        <mxCell id="5XN0uDn3HRlpicW2Zke3-10" value="" style="endArrow=none;dashed=1;html=1;startArrow=none;" parent="1" source="5XN0uDn3HRlpicW2Zke3-12" edge="1">
          <mxGeometry width="50" height="50" relative="1" as="geometry">
            <mxPoint x="935" y="920" as="sourcePoint" />
            <mxPoint x="934.8000000000002" y="640" as="targetPoint" />
          </mxGeometry>
        </mxCell>
        <mxCell id="5XN0uDn3HRlpicW2Zke3-11" value="find(params: Long)" style="verticalAlign=bottom;endArrow=block;shadow=0;strokeWidth=1;" parent="1" source="5XN0uDn3HRlpicW2Zke3-3" edge="1">
          <mxGeometry relative="1" as="geometry">
            <mxPoint x="510" y="720" as="sourcePoint" />
            <mxPoint x="665" y="720" as="targetPoint" />
            <Array as="points" />
          </mxGeometry>
        </mxCell>
        <mxCell id="5XN0uDn3HRlpicW2Zke3-12" value="" style="points=[];perimeter=orthogonalPerimeter;rounded=0;shadow=0;strokeWidth=1;" parent="1" vertex="1">
          <mxGeometry x="930" y="730" width="10" height="50" as="geometry" />
        </mxCell>
        <mxCell id="5XN0uDn3HRlpicW2Zke3-13" value="" style="endArrow=none;dashed=1;html=1;startArrow=none;" parent="1" target="5XN0uDn3HRlpicW2Zke3-12" edge="1">
          <mxGeometry width="50" height="50" relative="1" as="geometry">
            <mxPoint x="935" y="920" as="sourcePoint" />
            <mxPoint x="934.8000000000002" y="640" as="targetPoint" />
          </mxGeometry>
        </mxCell>
        <mxCell id="5XN0uDn3HRlpicW2Zke3-14" value="Retrive&#xa;Issue Info" style="verticalAlign=bottom;endArrow=block;shadow=0;strokeWidth=1;" parent="1" edge="1">
          <mxGeometry relative="1" as="geometry">
            <mxPoint x="806" y="739" as="sourcePoint" />
            <mxPoint x="930" y="739" as="targetPoint" />
            <Array as="points" />
          </mxGeometry>
        </mxCell>
        <mxCell id="5XN0uDn3HRlpicW2Zke3-15" value="return&#xa;Records" style="verticalAlign=bottom;endArrow=open;dashed=1;endSize=8;exitX=-0.026;exitY=1.002;shadow=0;strokeWidth=1;exitDx=0;exitDy=0;exitPerimeter=0;" parent="1" edge="1">
          <mxGeometry relative="1" as="geometry">
            <mxPoint x="804" y="771" as="targetPoint" />
            <mxPoint x="930" y="770.06" as="sourcePoint" />
          </mxGeometry>
        </mxCell>
        <mxCell id="5XN0uDn3HRlpicW2Zke3-16" value="set(IssueInfo: Info[])" style="verticalAlign=bottom;endArrow=block;shadow=0;strokeWidth=1;entryX=1;entryY=0.138;entryDx=0;entryDy=0;entryPerimeter=0;" parent="1" target="5XN0uDn3HRlpicW2Zke3-24" edge="1">
          <mxGeometry relative="1" as="geometry">
            <mxPoint x="656" y="781" as="sourcePoint" />
            <mxPoint x="535" y="781" as="targetPoint" />
            <Array as="points" />
          </mxGeometry>
        </mxCell>
        <mxCell id="5XN0uDn3HRlpicW2Zke3-2" value="Controller" style="shape=umlLifeline;perimeter=lifelinePerimeter;container=1;collapsible=0;recursiveResize=0;rounded=0;shadow=0;strokeWidth=1;" parent="1" vertex="1">
          <mxGeometry x="315" y="560" width="100" height="360" as="geometry" />
        </mxCell>
        <mxCell id="5XN0uDn3HRlpicW2Zke3-3" value="" style="points=[];perimeter=orthogonalPerimeter;rounded=0;shadow=0;strokeWidth=1;" parent="5XN0uDn3HRlpicW2Zke3-2" vertex="1">
          <mxGeometry x="45" y="80" width="10" height="90" as="geometry" />
        </mxCell>
        <mxCell id="5XN0uDn3HRlpicW2Zke3-7" value="Database&#xa;Connection" style="shape=umlLifeline;perimeter=lifelinePerimeter;container=1;collapsible=0;recursiveResize=0;rounded=0;shadow=0;strokeWidth=1;" parent="1" vertex="1">
          <mxGeometry x="750" y="560" width="100" height="360" as="geometry" />
        </mxCell>
        <mxCell id="5XN0uDn3HRlpicW2Zke3-8" value="" style="points=[];perimeter=orthogonalPerimeter;rounded=0;shadow=0;strokeWidth=1;" parent="5XN0uDn3HRlpicW2Zke3-7" vertex="1">
          <mxGeometry x="45" y="150" width="10" height="80" as="geometry" />
        </mxCell>
        <mxCell id="5XN0uDn3HRlpicW2Zke3-21" value="View Controller" style="shape=umlLifeline;perimeter=lifelinePerimeter;container=1;collapsible=0;recursiveResize=0;rounded=0;shadow=0;strokeWidth=1;" parent="1" vertex="1">
          <mxGeometry x="185" y="560" width="100" height="360" as="geometry" />
        </mxCell>
        <mxCell id="5XN0uDn3HRlpicW2Zke3-24" value="" style="points=[];perimeter=orthogonalPerimeter;rounded=0;shadow=0;strokeWidth=1;" parent="5XN0uDn3HRlpicW2Zke3-21" vertex="1">
          <mxGeometry x="45" y="210" width="10" height="80" as="geometry" />
        </mxCell>
        <mxCell id="5XN0uDn3HRlpicW2Zke3-28" value="get(queryRequest: string)" style="verticalAlign=bottom;endArrow=block;shadow=0;strokeWidth=1;exitX=1.002;exitY=0.706;exitDx=0;exitDy=0;exitPerimeter=0;" parent="1" source="5XN0uDn3HRlpicW2Zke3-1" edge="1">
          <mxGeometry relative="1" as="geometry">
            <mxPoint x="240.83000000000004" y="643.6800000000001" as="sourcePoint" />
            <mxPoint x="365" y="644" as="targetPoint" />
          </mxGeometry>
        </mxCell>
        <mxCell id="tsok4l0tC30ghfvMvASe-1" value="Service" style="shape=umlLifeline;perimeter=lifelinePerimeter;container=1;collapsible=0;recursiveResize=0;rounded=0;shadow=0;strokeWidth=1;" parent="1" vertex="1">
          <mxGeometry x="590" y="80" width="100" height="370" as="geometry" />
        </mxCell>
        <mxCell id="tsok4l0tC30ghfvMvASe-2" value="" style="points=[];perimeter=orthogonalPerimeter;rounded=0;shadow=0;strokeWidth=1;" parent="tsok4l0tC30ghfvMvASe-1" vertex="1">
          <mxGeometry x="45" y="119" width="10" height="75" as="geometry" />
        </mxCell>
        <mxCell id="tsok4l0tC30ghfvMvASe-3" value="find(params:Long)" style="verticalAlign=bottom;endArrow=block;shadow=0;strokeWidth=1;" parent="1" edge="1">
          <mxGeometry relative="1" as="geometry">
            <mxPoint x="646" y="221" as="sourcePoint" />
            <mxPoint x="786" y="221" as="targetPoint" />
          </mxGeometry>
        </mxCell>
        <mxCell id="tsok4l0tC30ghfvMvASe-4" value="" style="points=[];perimeter=orthogonalPerimeter;rounded=0;shadow=0;strokeWidth=1;" parent="1" vertex="1">
          <mxGeometry x="940" y="222" width="10" height="37.5" as="geometry" />
        </mxCell>
        <mxCell id="tsok4l0tC30ghfvMvASe-5" value="" style="endArrow=none;dashed=1;html=1;" parent="1" target="tsok4l0tC30ghfvMvASe-4" edge="1">
          <mxGeometry width="50" height="50" relative="1" as="geometry">
            <mxPoint x="944" y="450" as="sourcePoint" />
            <mxPoint x="944.5799999999999" y="180" as="targetPoint" />
          </mxGeometry>
        </mxCell>
        <mxCell id="tsok4l0tC30ghfvMvASe-6" value="return&#xa;List" style="verticalAlign=bottom;endArrow=open;dashed=1;endSize=8;shadow=0;strokeWidth=1;entryX=1;entryY=0.824;entryDx=0;entryDy=0;entryPerimeter=0;" parent="1" target="tsok4l0tC30ghfvMvASe-8" edge="1">
          <mxGeometry relative="1" as="geometry">
            <mxPoint x="660" y="775" as="targetPoint" />
            <mxPoint x="794.5" y="775" as="sourcePoint" />
            <Array as="points" />
          </mxGeometry>
        </mxCell>
        <mxCell id="tsok4l0tC30ghfvMvASe-7" value="Service" style="shape=umlLifeline;perimeter=lifelinePerimeter;container=1;collapsible=0;recursiveResize=0;rounded=0;shadow=0;strokeWidth=1;" parent="1" vertex="1">
          <mxGeometry x="610" y="560" width="100" height="360" as="geometry" />
        </mxCell>
        <mxCell id="tsok4l0tC30ghfvMvASe-8" value="" style="points=[];perimeter=orthogonalPerimeter;rounded=0;shadow=0;strokeWidth=1;" parent="tsok4l0tC30ghfvMvASe-7" vertex="1">
          <mxGeometry x="45" y="145" width="10" height="85" as="geometry" />
        </mxCell>
        <mxCell id="tsok4l0tC30ghfvMvASe-9" value="find(params:Long)" style="verticalAlign=bottom;endArrow=block;shadow=0;strokeWidth=1;" parent="1" edge="1">
          <mxGeometry relative="1" as="geometry">
            <mxPoint x="665" y="730" as="sourcePoint" />
            <mxPoint x="795" y="730" as="targetPoint" />
          </mxGeometry>
        </mxCell>
        <mxCell id="tsok4l0tC30ghfvMvASe-10" value="return&#xa;List" style="verticalAlign=bottom;endArrow=open;dashed=1;endSize=8;shadow=0;strokeWidth=1;" parent="1" edge="1">
          <mxGeometry relative="1" as="geometry">
            <mxPoint x="644" y="258.5" as="targetPoint" />
            <mxPoint x="784.5" y="258.5" as="sourcePoint" />
            <Array as="points" />
          </mxGeometry>
        </mxCell>
        <mxCell id="tsok4l0tC30ghfvMvASe-15" value="Authentication&#xa;Checker" style="shape=umlLifeline;perimeter=lifelinePerimeter;container=1;collapsible=0;recursiveResize=0;rounded=0;shadow=0;strokeWidth=1;" parent="1" vertex="1">
          <mxGeometry x="445" y="80" width="100" height="370" as="geometry" />
        </mxCell>
        <mxCell id="tsok4l0tC30ghfvMvASe-16" value="" style="points=[];perimeter=orthogonalPerimeter;rounded=0;shadow=0;strokeWidth=1;" parent="tsok4l0tC30ghfvMvASe-15" vertex="1">
          <mxGeometry x="45" y="90" width="10" height="20" as="geometry" />
        </mxCell>
        <mxCell id="tsok4l0tC30ghfvMvASe-17" value="Auth := Authenticate()" style="verticalAlign=bottom;endArrow=block;shadow=0;strokeWidth=1;exitX=0.5;exitY=0.1;exitDx=0;exitDy=0;exitPerimeter=0;" parent="1" edge="1">
          <mxGeometry x="-0.0669" relative="1" as="geometry">
            <mxPoint x="355" y="170" as="sourcePoint" />
            <mxPoint x="496" y="170" as="targetPoint" />
            <Array as="points" />
            <mxPoint as="offset" />
          </mxGeometry>
        </mxCell>
        <mxCell id="tsok4l0tC30ghfvMvASe-18" value="return Auth" style="verticalAlign=bottom;endArrow=open;dashed=1;endSize=8;shadow=0;strokeWidth=1;exitX=0.083;exitY=0.931;exitDx=0;exitDy=0;exitPerimeter=0;" parent="1" target="3nuBFxr9cyL0pnOWT2aG-5" edge="1">
          <mxGeometry relative="1" as="geometry">
            <mxPoint x="390" y="190.35000000000014" as="targetPoint" />
            <mxPoint x="490.8299999999999" y="190.35000000000014" as="sourcePoint" />
          </mxGeometry>
        </mxCell>
        <mxCell id="tsok4l0tC30ghfvMvASe-19" value="Authentication&#xa;Checker" style="shape=umlLifeline;perimeter=lifelinePerimeter;container=1;collapsible=0;recursiveResize=0;rounded=0;shadow=0;strokeWidth=1;" parent="1" vertex="1">
          <mxGeometry x="460" y="560" width="100" height="360" as="geometry" />
        </mxCell>
        <mxCell id="tsok4l0tC30ghfvMvASe-20" value="" style="points=[];perimeter=orthogonalPerimeter;rounded=0;shadow=0;strokeWidth=1;" parent="tsok4l0tC30ghfvMvASe-19" vertex="1">
          <mxGeometry x="45" y="98" width="10" height="22" as="geometry" />
        </mxCell>
        <mxCell id="tsok4l0tC30ghfvMvASe-21" value="Auth := Authenticate()" style="verticalAlign=bottom;endArrow=block;shadow=0;strokeWidth=1;exitX=0.5;exitY=0.1;exitDx=0;exitDy=0;exitPerimeter=0;" parent="1" edge="1">
          <mxGeometry x="-0.0669" relative="1" as="geometry">
            <mxPoint x="370" y="660" as="sourcePoint" />
            <mxPoint x="511" y="660" as="targetPoint" />
            <Array as="points" />
            <mxPoint as="offset" />
          </mxGeometry>
        </mxCell>
        <mxCell id="tsok4l0tC30ghfvMvASe-22" value="return Auth" style="verticalAlign=bottom;endArrow=open;dashed=1;endSize=8;shadow=0;strokeWidth=1;exitX=0.083;exitY=0.931;exitDx=0;exitDy=0;exitPerimeter=0;" parent="1" edge="1">
          <mxGeometry relative="1" as="geometry">
            <mxPoint x="370" y="680.0000000000001" as="targetPoint" />
            <mxPoint x="511.3299999999999" y="680.0000000000001" as="sourcePoint" />
          </mxGeometry>
        </mxCell>
        <mxCell id="AXQMlCUQgl6WfOUp5s5D-10" value="Issue Info&#xa;Page View" style="shape=umlLifeline;perimeter=lifelinePerimeter;container=1;collapsible=0;recursiveResize=0;rounded=0;shadow=0;strokeWidth=1;" parent="1" vertex="1">
          <mxGeometry x="-80" y="80" width="100" height="310" as="geometry" />
        </mxCell>
        <mxCell id="AXQMlCUQgl6WfOUp5s5D-13" value="" style="points=[];perimeter=orthogonalPerimeter;rounded=0;shadow=0;strokeWidth=1;" parent="AXQMlCUQgl6WfOUp5s5D-10" vertex="1">
          <mxGeometry x="45" y="70" width="10" height="190" as="geometry" />
        </mxCell>
        <mxCell id="AXQMlCUQgl6WfOUp5s5D-19" value="render(bookList: book[])" style="verticalAlign=bottom;endArrow=block;shadow=0;strokeWidth=1;entryX=1.097;entryY=0.822;entryDx=0;entryDy=0;entryPerimeter=0;" parent="1" edge="1">
          <mxGeometry x="-0.0373" relative="1" as="geometry">
            <mxPoint x="165" y="312.7399999999998" as="sourcePoint" />
            <mxPoint x="-24.029999999999745" y="312.7399999999998" as="targetPoint" />
            <Array as="points" />
            <mxPoint as="offset" />
          </mxGeometry>
        </mxCell>
        <mxCell id="AXQMlCUQgl6WfOUp5s5D-20" value="render(bookList: book[])" style="verticalAlign=bottom;endArrow=block;shadow=0;strokeWidth=1;entryX=1.097;entryY=0.822;entryDx=0;entryDy=0;entryPerimeter=0;" parent="1" edge="1">
          <mxGeometry x="-0.0373" relative="1" as="geometry">
            <mxPoint x="229.03" y="839.9999999999998" as="sourcePoint" />
            <mxPoint x="40.000000000000256" y="839.9999999999998" as="targetPoint" />
            <Array as="points" />
            <mxPoint as="offset" />
          </mxGeometry>
        </mxCell>
        <mxCell id="PDJ9DvChYjIFynAEPUYo-2" value="&lt;b&gt;Auth:true&lt;/b&gt;" style="text;html=1;strokeColor=none;fillColor=none;align=center;verticalAlign=middle;whiteSpace=wrap;rounded=0;" vertex="1" parent="1">
          <mxGeometry x="290" y="200" width="40" height="20" as="geometry" />
        </mxCell>
        <mxCell id="PDJ9DvChYjIFynAEPUYo-3" value="" style="endArrow=none;dashed=1;html=1;strokeWidth=3;" edge="1" parent="1">
          <mxGeometry width="50" height="50" relative="1" as="geometry">
            <mxPoint x="220" y="350" as="sourcePoint" />
            <mxPoint x="1030" y="350" as="targetPoint" />
          </mxGeometry>
        </mxCell>
        <mxCell id="PDJ9DvChYjIFynAEPUYo-4" value="&lt;b&gt;[else]&lt;/b&gt;" style="text;html=1;strokeColor=none;fillColor=none;align=center;verticalAlign=middle;whiteSpace=wrap;rounded=0;" vertex="1" parent="1">
          <mxGeometry x="230" y="360" width="40" height="20" as="geometry" />
        </mxCell>
        <mxCell id="PDJ9DvChYjIFynAEPUYo-5" value="alt" style="shape=umlFrame;whiteSpace=wrap;html=1;" vertex="1" parent="1">
          <mxGeometry x="244" y="690" width="716" height="305" as="geometry" />
        </mxCell>
        <mxCell id="PDJ9DvChYjIFynAEPUYo-6" value="&lt;b&gt;Auth:true&lt;/b&gt;" style="text;html=1;strokeColor=none;fillColor=none;align=center;verticalAlign=middle;whiteSpace=wrap;rounded=0;" vertex="1" parent="1">
          <mxGeometry x="314" y="695" width="40" height="20" as="geometry" />
        </mxCell>
        <mxCell id="PDJ9DvChYjIFynAEPUYo-7" value="" style="endArrow=none;dashed=1;html=1;strokeWidth=3;" edge="1" parent="1">
          <mxGeometry width="50" height="50" relative="1" as="geometry">
            <mxPoint x="244" y="845" as="sourcePoint" />
            <mxPoint x="960" y="845" as="targetPoint" />
          </mxGeometry>
        </mxCell>
        <mxCell id="PDJ9DvChYjIFynAEPUYo-8" value="&lt;b&gt;[else]&lt;/b&gt;" style="text;html=1;strokeColor=none;fillColor=none;align=center;verticalAlign=middle;whiteSpace=wrap;rounded=0;" vertex="1" parent="1">
          <mxGeometry x="254" y="855" width="40" height="20" as="geometry" />
        </mxCell>
      </root>
    </mxGraphModel>
  </diagram>
</mxfile>
